# xmcd
#
# Track frame offsets: 
#        150
#        19559
#        41455
#        52864
#        76439
#        92635
#        100446
#        107442
#        116827
#        144001
#        161232
#        192634
#        213118
#        233520
#        246097
#        252541
#        265115
#        287200
#        316474
#        332459
#
# Disc length: 4709 seconds
#
# Revision: 0
# Processed by: cddbd v1.5.2PL0 Copyright (c) Steve Scherf et al.
# Submitted via: ExactAudioCopy v0.99pb4
#
DISCID=0f126314
DTITLE=Spirit - The Archive ... An Introduction
DYEAR=1900
DGENRE=Rock
TTITLE0=Son Of America
TTITLE1=Cages
TTITLE2=Suntronics
TTITLE3=His Love
TTITLE4=Wagon Of Wood
TTITLE5=When You're Smilin'
TTITLE6=French Apartment
TTITLE7=Charlie James
TTITLE8=Miss This Train
TTITLE9=Soldier
TTITLE10=Jam Free
TTITLE11=Shock Values
TTITLE12=Oil Slick - Million Years Suite
TTITLE13=My Friend
TTITLE14=You Know
TTITLE15=Neptune Caper
TTITLE16=Victim Of Society
TTITLE17=Zandu
TTITLE18=Reeling The Night
TTITLE19=Natures's Way (instr) [edit]
EXTD=
EXTT0=
EXTT1=
EXTT2=
EXTT3=
EXTT4=
EXTT5=
EXTT6=
EXTT7=
EXTT8=
EXTT9=
EXTT10=
EXTT11=
EXTT12=
EXTT13=
EXTT14=
EXTT15=
EXTT16=
EXTT17=
EXTT18=
EXTT19=
PLAYORDER=
